<svg xmlns="http://www.w3.org/2000/svg" viewBox="0 0 520 520" width="128" height="128"><path fill="#A04000" d="M450 236.2H301.6L375.8 108l-41.6-24L260 212.4 185.8 84l-41.6 24 74.2 128.5H70v48h166v165.7h48v-166h166z"/><circle fill="#208020" cx="260" cy="450.2" r="64"/><path fill="#FFC000" d="M260 482.2c-59.3 0-115-23.1-157-65s-65-97.7-65-157 23.1-115 65-157c41.9-41.9 97.7-65 157-65s115 23.1 157 65c41.9 41.9 65 97.7 65 157s-23.1 115-65 157-97.7 65-157 65zm0-379.9c-87.1 0-158 70.9-158 158s70.9 158 158 158 158-70.9 158-158-70.9-158-158-158z"/><circle fill="#208020" cx="70.9" cy="260" r="64"/><circle fill="#208020" cx="450.6" cy="260.2" r="64"/><circle fill="#208020" cx="260.6" cy="260.2" r="64"/><circle fill="#208020" cx="164.8" cy="95.6" r="64"/><circle fill="#208020" cx="355.7" cy="95.6" r="64"/></svg>